<svg version="1.1" xmlns="http://www.w3.org/2000/svg" xmlns:xlink="http://www.w3.org/1999/xlink" width="1623" height="1370"><defs></defs><g><g transform="translate(-110,-62) scale(1,1)"><rect fill="#C0C0C0" stroke="none" x="607" y="79" width="200" height="100" opacity="0.2"></rect></g><g transform="translate(-110,-62) scale(1,1)"><rect fill="#ffffff" stroke="none" x="600" y="72" width="200" height="100"></rect></g><g transform="translate(-110,-62) scale(1,1)"><path fill="none" stroke="#000000" d="M 600 72 L 800 72 L 800 172 L 600 172 L 600 72 Z Z" stroke-miterlimit="10"></path></g><g transform="translate(-110,-62) scale(1,1)"><path fill="none" stroke="#000000" d="M 600 110 L 800 110" stroke-miterlimit="10"></path></g><g transform="translate(-110,-62) scale(1,1)"><path fill="none" stroke="#000000" d="M 600 120 L 800 120" stroke-miterlimit="10"></path></g><g transform="translate(-110,-62) scale(1,1)"><g><path fill="none" stroke="none"></path><text fill="#000000" stroke="none" font-family="Arial" font-size="13px" font-style="normal" font-weight="normal" text-decoration="none" x="668.5" y="89.5">«interface»</text></g></g><g transform="translate(-110,-62) scale(1,1)"><g><path fill="none" stroke="none"></path><text fill="#000000" stroke="none" font-family="Arial" font-size="13px" font-style="normal" font-weight="bold" text-decoration="none" x="641.5" y="104.5">ManagmentInterface</text></g></g><g transform="translate(-110,-62) scale(1,1)"><g><path fill="none" stroke="none"></path><text fill="#000000" stroke="none" font-family="Arial" font-size="13px" font-style="normal" font-weight="normal" text-decoration="none" x="605" y="137.5">+loginSetup(): void</text></g></g><g transform="translate(-110,-62) scale(1,1)"><g><path fill="none" stroke="none"></path><text fill="#000000" stroke="none" font-family="Arial" font-size="13px" font-style="normal" font-weight="normal" text-decoration="none" x="605" y="152.5">+login(): void</text></g></g><g transform="translate(-110,-62) scale(1,1)"><g><path fill="none" stroke="none"></path><text fill="#000000" stroke="none" font-family="Arial" font-size="13px" font-style="normal" font-weight="normal" text-decoration="none" x="605" y="167.5">+businesSetup(): void</text></g></g><g transform="translate(-110,-62) scale(1,1)"><rect fill="#C0C0C0" stroke="none" x="1151" y="1247" width="232" height="85" opacity="0.2"></rect></g><g transform="translate(-110,-62) scale(1,1)"><rect fill="#ffffff" stroke="none" x="1144" y="1240" width="232" height="85"></rect></g><g transform="translate(-110,-62) scale(1,1)"><path fill="none" stroke="#000000" d="M 1144 1240 L 1376 1240 L 1376 1325 L 1144 1325 L 1144 1240 Z Z" stroke-miterlimit="10"></path></g><g transform="translate(-110,-62) scale(1,1)"><path fill="none" stroke="#000000" d="M 1144 1278 L 1376 1278" stroke-miterlimit="10"></path></g><g transform="translate(-110,-62) scale(1,1)"><path fill="none" stroke="#000000" d="M 1144 1288 L 1376 1288" stroke-miterlimit="10"></path></g><g transform="translate(-110,-62) scale(1,1)"><g><path fill="none" stroke="none"></path><text fill="#000000" stroke="none" font-family="Arial" font-size="13px" font-style="normal" font-weight="normal" text-decoration="none" x="1237" y="1257.5">«entity»</text></g></g><g transform="translate(-110,-62) scale(1,1)"><g><path fill="none" stroke="none"></path><text fill="#000000" stroke="none" font-family="Arial" font-size="13px" font-style="normal" font-weight="bold" text-decoration="none" x="1242" y="1272.5">Server</text></g></g><g transform="translate(-110,-62) scale(1,1)"><g><path fill="none" stroke="none"></path><text fill="#000000" stroke="none" font-family="Arial" font-size="13px" font-style="normal" font-weight="normal" text-decoration="none" x="1149" y="1305.5">+accept(): void</text></g></g><g transform="translate(-110,-62) scale(1,1)"><g><path fill="none" stroke="none"></path><text fill="#000000" stroke="none" font-family="Arial" font-size="13px" font-style="normal" font-weight="normal" text-decoration="none" x="1149" y="1320.5">+sendData(): void</text></g></g><g transform="translate(-110,-62) scale(1,1)"><rect fill="#C0C0C0" stroke="none" x="1383" y="479" width="170" height="158" opacity="0.2"></rect></g><g transform="translate(-110,-62) scale(1,1)"><rect fill="#ffffff" stroke="none" x="1376" y="472" width="170" height="158"></rect></g><g transform="translate(-110,-62) scale(1,1)"><path fill="none" stroke="#000000" d="M 1376 472 L 1546 472 L 1546 630 L 1376 630 L 1376 472 Z Z" stroke-miterlimit="10"></path></g><g transform="translate(-110,-62) scale(1,1)"><path fill="none" stroke="#000000" d="M 1376 510 L 1546 510" stroke-miterlimit="10"></path></g><g transform="translate(-110,-62) scale(1,1)"><path fill="none" stroke="#000000" d="M 1376 563 L 1546 563" stroke-miterlimit="10"></path></g><g transform="translate(-110,-62) scale(1,1)"><g><path fill="none" stroke="none"></path><text fill="#000000" stroke="none" font-family="Arial" font-size="13px" font-style="normal" font-weight="normal" text-decoration="none" x="1429.5" y="489.5">«interface»</text></g></g><g transform="translate(-110,-62) scale(1,1)"><g><path fill="none" stroke="none"></path><text fill="#000000" stroke="none" font-family="Arial" font-size="13px" font-style="normal" font-weight="bold" text-decoration="none" x="1435" y="504.5">Payment</text></g></g><g transform="translate(-110,-62) scale(1,1)"><g><path fill="none" stroke="none"></path><text fill="#000000" stroke="none" font-family="Arial" font-size="13px" font-style="normal" font-weight="normal" text-decoration="none" x="1381" y="527.5">-currency: String</text></g></g><g transform="translate(-110,-62) scale(1,1)"><g><path fill="none" stroke="none"></path><text fill="#000000" stroke="none" font-family="Arial" font-size="13px" font-style="normal" font-weight="normal" text-decoration="none" x="1381" y="542.5">-type: int</text></g></g><g transform="translate(-110,-62) scale(1,1)"><g><path fill="none" stroke="none"></path><text fill="#000000" stroke="none" font-family="Arial" font-size="13px" font-style="normal" font-weight="normal" text-decoration="none" x="1381" y="557.5">-weight: double</text></g></g><g transform="translate(-110,-62) scale(1,1)"><g><path fill="none" stroke="none"></path><text fill="#000000" stroke="none" font-family="Arial" font-size="13px" font-style="normal" font-weight="normal" text-decoration="none" x="1381" y="580.5">+convert(double): void</text></g></g><g transform="translate(-110,-62) scale(1,1)"><g><path fill="none" stroke="none"></path><text fill="#000000" stroke="none" font-family="Arial" font-size="13px" font-style="normal" font-weight="normal" text-decoration="none" x="1381" y="595.5">+accept(): void</text></g></g><g transform="translate(-110,-62) scale(1,1)"><g><path fill="none" stroke="none"></path><text fill="#000000" stroke="none" font-family="Arial" font-size="13px" font-style="normal" font-weight="normal" text-decoration="none" x="1381" y="610.5">+dispenseChange(): void</text></g></g><g transform="translate(-110,-62) scale(1,1)"><g><path fill="none" stroke="none"></path><text fill="#000000" stroke="none" font-family="Arial" font-size="13px" font-style="normal" font-weight="normal" text-decoration="none" x="1381" y="625.5">+refund(double): void</text></g></g><g transform="translate(-110,-62) scale(1,1)"><rect fill="#C0C0C0" stroke="none" x="599" y="271" width="208" height="100" opacity="0.2"></rect></g><g transform="translate(-110,-62) scale(1,1)"><rect fill="#ffffff" stroke="none" x="592" y="264" width="208" height="100"></rect></g><g transform="translate(-110,-62) scale(1,1)"><path fill="none" stroke="#000000" d="M 592 264 L 800 264 L 800 364 L 592 364 L 592 264 Z Z" stroke-miterlimit="10"></path></g><g transform="translate(-110,-62) scale(1,1)"><path fill="none" stroke="#000000" d="M 592 302 L 800 302" stroke-miterlimit="10"></path></g><g transform="translate(-110,-62) scale(1,1)"><path fill="none" stroke="#000000" d="M 592 312 L 800 312" stroke-miterlimit="10"></path></g><g transform="translate(-110,-62) scale(1,1)"><g><path fill="none" stroke="none"></path><text fill="#000000" stroke="none" font-family="Arial" font-size="13px" font-style="normal" font-weight="normal" text-decoration="none" x="662.5" y="281.5">«boundary»</text></g></g><g transform="translate(-110,-62) scale(1,1)"><g><path fill="none" stroke="none"></path><text fill="#000000" stroke="none" font-family="Arial" font-size="13px" font-style="normal" font-weight="bold" text-decoration="none" x="658" y="296.5">UserInterface</text></g></g><g transform="translate(-110,-62) scale(1,1)"><g><path fill="none" stroke="none"></path><text fill="#000000" stroke="none" font-family="Arial" font-size="13px" font-style="normal" font-weight="normal" text-decoration="none" x="597" y="329.5">+loginSetup(): void</text></g></g><g transform="translate(-110,-62) scale(1,1)"><g><path fill="none" stroke="none"></path><text fill="#000000" stroke="none" font-family="Arial" font-size="13px" font-style="normal" font-weight="normal" text-decoration="none" x="597" y="344.5">+login(): void</text></g></g><g transform="translate(-110,-62) scale(1,1)"><g><path fill="none" stroke="none"></path><text fill="#000000" stroke="none" font-family="Arial" font-size="13px" font-style="normal" font-weight="normal" text-decoration="none" x="597" y="359.5">+businessSetup(): void</text></g></g><g transform="translate(-110,-62) scale(1,1)"><rect fill="#C0C0C0" stroke="none" x="591" y="479" width="216" height="128" opacity="0.2"></rect></g><g transform="translate(-110,-62) scale(1,1)"><rect fill="#ffffff" stroke="none" x="584" y="472" width="216" height="128"></rect></g><g transform="translate(-110,-62) scale(1,1)"><path fill="none" stroke="#000000" d="M 584 472 L 800 472 L 800 600 L 584 600 L 584 472 Z Z" stroke-miterlimit="10"></path></g><g transform="translate(-110,-62) scale(1,1)"><path fill="none" stroke="#000000" d="M 584 510 L 800 510" stroke-miterlimit="10"></path></g><g transform="translate(-110,-62) scale(1,1)"><path fill="none" stroke="#000000" d="M 584 533 L 800 533" stroke-miterlimit="10"></path></g><g transform="translate(-110,-62) scale(1,1)"><g><path fill="none" stroke="none"></path><text fill="#000000" stroke="none" font-family="Arial" font-size="13px" font-style="normal" font-weight="normal" text-decoration="none" x="669" y="489.5">«entity»</text></g></g><g transform="translate(-110,-62) scale(1,1)"><g><path fill="none" stroke="none"></path><text fill="#000000" stroke="none" font-family="Arial" font-size="13px" font-style="normal" font-weight="bold" text-decoration="none" x="644" y="504.5">VendingMachine</text></g></g><g transform="translate(-110,-62) scale(1,1)"><g><path fill="none" stroke="none"></path><text fill="#000000" stroke="none" font-family="Arial" font-size="13px" font-style="normal" font-weight="normal" text-decoration="none" x="589" y="527.5">-slots[ ]: Slot</text></g></g><g transform="translate(-110,-62) scale(1,1)"><g><path fill="none" stroke="none"></path><text fill="#000000" stroke="none" font-family="Arial" font-size="13px" font-style="normal" font-weight="normal" text-decoration="none" x="589" y="550.5">+startInterface(): void</text></g></g><g transform="translate(-110,-62) scale(1,1)"><g><path fill="none" stroke="none"></path><text fill="#000000" stroke="none" font-family="Arial" font-size="13px" font-style="normal" font-weight="normal" text-decoration="none" x="589" y="565.5">+setSlot(Slot)</text></g></g><g transform="translate(-110,-62) scale(1,1)"><g><path fill="none" stroke="none"></path><text fill="#000000" stroke="none" font-family="Arial" font-size="13px" font-style="normal" font-weight="normal" text-decoration="none" x="589" y="580.5">+getSlot(): Slot</text></g></g><g transform="translate(-110,-62) scale(1,1)"><rect fill="#C0C0C0" stroke="none" x="127" y="687" width="200" height="233" opacity="0.2"></rect></g><g transform="translate(-110,-62) scale(1,1)"><rect fill="#ffffff" stroke="none" x="120" y="680" width="200" height="233"></rect></g><g transform="translate(-110,-62) scale(1,1)"><path fill="none" stroke="#000000" d="M 120 680 L 320 680 L 320 913 L 120 913 L 120 680 Z Z" stroke-miterlimit="10"></path></g><g transform="translate(-110,-62) scale(1,1)"><path fill="none" stroke="#000000" d="M 120 718 L 320 718" stroke-miterlimit="10"></path></g><g transform="translate(-110,-62) scale(1,1)"><path fill="none" stroke="#000000" d="M 120 786 L 320 786" stroke-miterlimit="10"></path></g><g transform="translate(-110,-62) scale(1,1)"><g><path fill="none" stroke="none"></path><text fill="#000000" stroke="none" font-family="Arial" font-size="13px" font-style="normal" font-weight="normal" text-decoration="none" x="197" y="697.5">«entity»</text></g></g><g transform="translate(-110,-62) scale(1,1)"><g><path fill="none" stroke="none"></path><text fill="#000000" stroke="none" font-family="Arial" font-size="13px" font-style="normal" font-weight="bold" text-decoration="none" x="197.5" y="712.5">Product</text></g></g><g transform="translate(-110,-62) scale(1,1)"><g><path fill="none" stroke="none"></path><text fill="#000000" stroke="none" font-family="Arial" font-size="13px" font-style="normal" font-weight="normal" text-decoration="none" x="125" y="735.5">-name: String</text></g></g><g transform="translate(-110,-62) scale(1,1)"><g><path fill="none" stroke="none"></path><text fill="#000000" stroke="none" font-family="Arial" font-size="13px" font-style="normal" font-weight="normal" text-decoration="none" x="125" y="750.5">-price: double</text></g></g><g transform="translate(-110,-62) scale(1,1)"><g><path fill="none" stroke="none"></path><text fill="#000000" stroke="none" font-family="Arial" font-size="13px" font-style="normal" font-weight="normal" text-decoration="none" x="125" y="765.5">-currency: string</text></g></g><g transform="translate(-110,-62) scale(1,1)"><g><path fill="none" stroke="none"></path><text fill="#000000" stroke="none" font-family="Arial" font-size="13px" font-style="normal" font-weight="normal" text-decoration="none" x="125" y="780.5">-weight: double</text></g></g><g transform="translate(-110,-62) scale(1,1)"><g><path fill="none" stroke="none"></path><text fill="#000000" stroke="none" font-family="Arial" font-size="13px" font-style="normal" font-weight="normal" text-decoration="none" x="125" y="803.5">+getName(): String</text></g></g><g transform="translate(-110,-62) scale(1,1)"><g><path fill="none" stroke="none"></path><text fill="#000000" stroke="none" font-family="Arial" font-size="13px" font-style="normal" font-weight="normal" text-decoration="none" x="125" y="818.5">+getPrice(): double</text></g></g><g transform="translate(-110,-62) scale(1,1)"><g><path fill="none" stroke="none"></path><text fill="#000000" stroke="none" font-family="Arial" font-size="13px" font-style="normal" font-weight="normal" text-decoration="none" x="125" y="833.5">+getCurrencyType(): String</text></g></g><g transform="translate(-110,-62) scale(1,1)"><g><path fill="none" stroke="none"></path><text fill="#000000" stroke="none" font-family="Arial" font-size="13px" font-style="normal" font-weight="normal" text-decoration="none" x="125" y="848.5">+getWeight(): double</text></g></g><g transform="translate(-110,-62) scale(1,1)"><g><path fill="none" stroke="none"></path><text fill="#000000" stroke="none" font-family="Arial" font-size="13px" font-style="normal" font-weight="normal" text-decoration="none" x="125" y="863.5">+setName(String): void</text></g></g><g transform="translate(-110,-62) scale(1,1)"><g><path fill="none" stroke="none"></path><text fill="#000000" stroke="none" font-family="Arial" font-size="13px" font-style="normal" font-weight="normal" text-decoration="none" x="125" y="878.5">+setPrice(double): void</text></g></g><g transform="translate(-110,-62) scale(1,1)"><g><path fill="none" stroke="none"></path><text fill="#000000" stroke="none" font-family="Arial" font-size="13px" font-style="normal" font-weight="normal" text-decoration="none" x="125" y="893.5">+setCurrency(String): void</text></g></g><g transform="translate(-110,-62) scale(1,1)"><g><path fill="none" stroke="none"></path><text fill="#000000" stroke="none" font-family="Arial" font-size="13px" font-style="normal" font-weight="normal" text-decoration="none" x="125" y="908.5">+setWeight(double): void</text></g></g><g transform="translate(-110,-62) scale(1,1)"><rect fill="#C0C0C0" stroke="none" x="495" y="1239" width="216" height="190" opacity="0.2"></rect></g><g transform="translate(-110,-62) scale(1,1)"><rect fill="#ffffff" stroke="none" x="488" y="1232" width="216" height="190"></rect></g><g transform="translate(-110,-62) scale(1,1)"><path fill="none" stroke="#000000" d="M 488 1232 L 704 1232 L 704 1422 L 488 1422 L 488 1232 Z Z" stroke-miterlimit="10"></path></g><g transform="translate(-110,-62) scale(1,1)"><path fill="none" stroke="#000000" d="M 488 1270 L 704 1270" stroke-miterlimit="10"></path></g><g transform="translate(-110,-62) scale(1,1)"><path fill="none" stroke="#000000" d="M 488 1280 L 704 1280" stroke-miterlimit="10"></path></g><g transform="translate(-110,-62) scale(1,1)"><g><path fill="none" stroke="none"></path><text fill="#000000" stroke="none" font-family="Arial" font-size="13px" font-style="normal" font-weight="normal" text-decoration="none" x="569.5" y="1249.5">«control»</text></g></g><g transform="translate(-110,-62) scale(1,1)"><g><path fill="none" stroke="none"></path><text fill="#000000" stroke="none" font-family="Arial" font-size="13px" font-style="normal" font-weight="bold" text-decoration="none" x="550" y="1264.5">DatabaseHelper</text></g></g><g transform="translate(-110,-62) scale(1,1)"><g><path fill="none" stroke="none"></path><text fill="#000000" stroke="none" font-family="Arial" font-size="13px" font-style="normal" font-weight="normal" text-decoration="none" x="493" y="1297.5">+createDataBase(String[]): void</text></g></g><g transform="translate(-110,-62) scale(1,1)"><g><path fill="none" stroke="none"></path><text fill="#000000" stroke="none" font-family="Arial" font-size="13px" font-style="normal" font-weight="normal" text-decoration="none" x="493" y="1312.5">+updateTable(String[]): void</text></g></g><g transform="translate(-110,-62) scale(1,1)"><g><path fill="none" stroke="none"></path><text fill="#000000" stroke="none" font-family="Arial" font-size="13px" font-style="normal" font-weight="normal" text-decoration="none" x="493" y="1327.5">+deleteTable(String): void</text></g></g><g transform="translate(-110,-62) scale(1,1)"><g><path fill="none" stroke="none"></path><text fill="#000000" stroke="none" font-family="Arial" font-size="13px" font-style="normal" font-weight="normal" text-decoration="none" x="493" y="1342.5">+setUsername(String): void</text></g></g><g transform="translate(-110,-62) scale(1,1)"><g><path fill="none" stroke="none"></path><text fill="#000000" stroke="none" font-family="Arial" font-size="13px" font-style="normal" font-weight="normal" text-decoration="none" x="493" y="1357.5">+setPassword(String): void</text></g></g><g transform="translate(-110,-62) scale(1,1)"><g><path fill="none" stroke="none"></path><text fill="#000000" stroke="none" font-family="Arial" font-size="13px" font-style="normal" font-weight="normal" text-decoration="none" x="493" y="1372.5">+setMachineConfig(String): void</text></g></g><g transform="translate(-110,-62) scale(1,1)"><g><path fill="none" stroke="none"></path><text fill="#000000" stroke="none" font-family="Arial" font-size="13px" font-style="normal" font-weight="normal" text-decoration="none" x="493" y="1387.5">+getMachineConfig(): double</text></g></g><g transform="translate(-110,-62) scale(1,1)"><g><path fill="none" stroke="none"></path><text fill="#000000" stroke="none" font-family="Arial" font-size="13px" font-style="normal" font-weight="normal" text-decoration="none" x="493" y="1402.5">+getPassword(): String</text></g></g><g transform="translate(-110,-62) scale(1,1)"><g><path fill="none" stroke="none"></path><text fill="#000000" stroke="none" font-family="Arial" font-size="13px" font-style="normal" font-weight="normal" text-decoration="none" x="493" y="1417.5">+getUsername(): String</text></g></g><g transform="translate(-110,-62) scale(1,1)"><rect fill="#C0C0C0" stroke="none" x="495" y="711" width="216" height="203" opacity="0.2"></rect></g><g transform="translate(-110,-62) scale(1,1)"><rect fill="#ffffff" stroke="none" x="488" y="704" width="216" height="203"></rect></g><g transform="translate(-110,-62) scale(1,1)"><path fill="none" stroke="#000000" d="M 488 704 L 704 704 L 704 907 L 488 907 L 488 704 Z Z" stroke-miterlimit="10"></path></g><g transform="translate(-110,-62) scale(1,1)"><path fill="none" stroke="#000000" d="M 488 742 L 704 742" stroke-miterlimit="10"></path></g><g transform="translate(-110,-62) scale(1,1)"><path fill="none" stroke="#000000" d="M 488 810 L 704 810" stroke-miterlimit="10"></path></g><g transform="translate(-110,-62) scale(1,1)"><g><path fill="none" stroke="none"></path><text fill="#000000" stroke="none" font-family="Arial" font-size="13px" font-style="normal" font-weight="normal" text-decoration="none" x="573" y="721.5">«entity»</text></g></g><g transform="translate(-110,-62) scale(1,1)"><g><path fill="none" stroke="none"></path><text fill="#000000" stroke="none" font-family="Arial" font-size="13px" font-style="normal" font-weight="bold" text-decoration="none" x="584.5" y="736.5">Slot</text></g></g><g transform="translate(-110,-62) scale(1,1)"><g><path fill="none" stroke="none"></path><text fill="#000000" stroke="none" font-family="Arial" font-size="13px" font-style="normal" font-weight="normal" text-decoration="none" x="493" y="759.5">-product: Product</text></g></g><g transform="translate(-110,-62) scale(1,1)"><g><path fill="none" stroke="none"></path><text fill="#000000" stroke="none" font-family="Arial" font-size="13px" font-style="normal" font-weight="normal" text-decoration="none" x="493" y="774.5">-location: String</text></g></g><g transform="translate(-110,-62) scale(1,1)"><g><path fill="none" stroke="none"></path><text fill="#000000" stroke="none" font-family="Arial" font-size="13px" font-style="normal" font-weight="normal" text-decoration="none" x="493" y="789.5">-weight: double</text></g></g><g transform="translate(-110,-62) scale(1,1)"><g><path fill="none" stroke="none"></path><text fill="#000000" stroke="none" font-family="Arial" font-size="13px" font-style="normal" font-weight="normal" text-decoration="none" x="493" y="804.5">-temperature: double</text></g></g><g transform="translate(-110,-62) scale(1,1)"><g><path fill="none" stroke="none"></path><text fill="#000000" stroke="none" font-family="Arial" font-size="13px" font-style="normal" font-weight="normal" text-decoration="none" x="493" y="827.5">+getLocation(): String</text></g></g><g transform="translate(-110,-62) scale(1,1)"><g><path fill="none" stroke="none"></path><text fill="#000000" stroke="none" font-family="Arial" font-size="13px" font-style="normal" font-weight="normal" text-decoration="none" x="493" y="842.5">+getTemperature(): double</text></g></g><g transform="translate(-110,-62) scale(1,1)"><g><path fill="none" stroke="none"></path><text fill="#000000" stroke="none" font-family="Arial" font-size="13px" font-style="normal" font-weight="normal" text-decoration="none" x="493" y="857.5">+getWeight(): double</text></g></g><g transform="translate(-110,-62) scale(1,1)"><g><path fill="none" stroke="none"></path><text fill="#000000" stroke="none" font-family="Arial" font-size="13px" font-style="normal" font-weight="normal" text-decoration="none" x="493" y="872.5">+setLocation(String): void</text></g></g><g transform="translate(-110,-62) scale(1,1)"><g><path fill="none" stroke="none"></path><text fill="#000000" stroke="none" font-family="Arial" font-size="13px" font-style="normal" font-weight="normal" text-decoration="none" x="493" y="887.5">+setTemperature(Product): void</text></g></g><g transform="translate(-110,-62) scale(1,1)"><g><path fill="none" stroke="none"></path><text fill="#000000" stroke="none" font-family="Arial" font-size="13px" font-style="normal" font-weight="normal" text-decoration="none" x="493" y="902.5">+setWeight(Product): void</text></g></g><g transform="translate(-110,-62) scale(1,1)"><rect fill="#C0C0C0" stroke="none" x="1439" y="751" width="291" height="128" opacity="0.2"></rect></g><g transform="translate(-110,-62) scale(1,1)"><rect fill="#ffffff" stroke="none" x="1432" y="744" width="291" height="128"></rect></g><g transform="translate(-110,-62) scale(1,1)"><path fill="none" stroke="#000000" d="M 1432 744 L 1723 744 L 1723 872 L 1432 872 L 1432 744 Z Z" stroke-miterlimit="10"></path></g><g transform="translate(-110,-62) scale(1,1)"><path fill="none" stroke="#000000" d="M 1432 782 L 1723 782" stroke-miterlimit="10"></path></g><g transform="translate(-110,-62) scale(1,1)"><path fill="none" stroke="#000000" d="M 1432 850 L 1723 850" stroke-miterlimit="10"></path></g><g transform="translate(-110,-62) scale(1,1)"><g><path fill="none" stroke="none"></path><text fill="#000000" stroke="none" font-family="Arial" font-size="13px" font-style="normal" font-weight="normal" text-decoration="none" x="1554.5" y="761.5">«entity»</text></g></g><g transform="translate(-110,-62) scale(1,1)"><g><path fill="none" stroke="none"></path><text fill="#000000" stroke="none" font-family="Arial" font-size="13px" font-style="normal" font-weight="bold" text-decoration="none" x="1557" y="776.5">Sensor</text></g></g><g transform="translate(-110,-62) scale(1,1)"><g><path fill="none" stroke="none"></path><text fill="#000000" stroke="none" font-family="Arial" font-size="13px" font-style="normal" font-weight="normal" text-decoration="none" x="1437" y="799.5">+TEMP_SENSOR_ADDR[ ]: String</text></g></g><g transform="translate(-110,-62) scale(1,1)"><g><path fill="none" stroke="none"></path><text fill="#000000" stroke="none" font-family="Arial" font-size="13px" font-style="normal" font-weight="normal" text-decoration="none" x="1437" y="814.5">+WEIGHT_SENSOR_ADDR[ ]: String</text></g></g><g transform="translate(-110,-62) scale(1,1)"><g><path fill="none" stroke="none"></path><text fill="#000000" stroke="none" font-family="Arial" font-size="13px" font-style="normal" font-weight="normal" text-decoration="none" x="1437" y="829.5">+PAYMENT_HW_ADDR[ ]: String</text></g></g><g transform="translate(-110,-62) scale(1,1)"><g><path fill="none" stroke="none"></path><text fill="#000000" stroke="none" font-family="Arial" font-size="13px" font-style="normal" font-weight="normal" text-decoration="none" x="1437" y="844.5">+ACCELEROMETER_SENSOR_ADDR[]: String</text></g></g><g transform="translate(-110,-62) scale(1,1)"><g><path fill="none" stroke="none"></path><text fill="#000000" stroke="none" font-family="Arial" font-size="13px" font-style="normal" font-weight="normal" text-decoration="none" x="1437" y="867.5">+getData(int): double</text></g></g><g transform="translate(-110,-62) scale(1,1)"><rect fill="#C0C0C0" stroke="none" x="1063" y="487" width="219" height="143" opacity="0.2"></rect></g><g transform="translate(-110,-62) scale(1,1)"><rect fill="#ffffff" stroke="none" x="1056" y="480" width="219" height="143"></rect></g><g transform="translate(-110,-62) scale(1,1)"><path fill="none" stroke="#000000" d="M 1056 480 L 1275 480 L 1275 623 L 1056 623 L 1056 480 Z Z" stroke-miterlimit="10"></path></g><g transform="translate(-110,-62) scale(1,1)"><path fill="none" stroke="#000000" d="M 1056 518 L 1275 518" stroke-miterlimit="10"></path></g><g transform="translate(-110,-62) scale(1,1)"><path fill="none" stroke="#000000" d="M 1056 541 L 1275 541" stroke-miterlimit="10"></path></g><g transform="translate(-110,-62) scale(1,1)"><g><path fill="none" stroke="none"></path><text fill="#000000" stroke="none" font-family="Arial" font-size="13px" font-style="normal" font-weight="normal" text-decoration="none" x="1139" y="497.5">«control»</text></g></g><g transform="translate(-110,-62) scale(1,1)"><g><path fill="none" stroke="none"></path><text fill="#000000" stroke="none" font-family="Arial" font-size="13px" font-style="normal" font-weight="bold" text-decoration="none" x="1116.5" y="512.5">SystemAdvocate</text></g></g><g transform="translate(-110,-62) scale(1,1)"><g><path fill="none" stroke="none"></path><text fill="#000000" stroke="none" font-family="Arial" font-size="13px" font-style="normal" font-weight="normal" text-decoration="none" x="1061" y="535.5">+systemControl: SystemControl</text></g></g><g transform="translate(-110,-62) scale(1,1)"><g><path fill="none" stroke="none"></path><text fill="#000000" stroke="none" font-family="Arial" font-size="13px" font-style="normal" font-weight="normal" text-decoration="none" x="1061" y="558.5">+setUpSystemControl(): void</text></g></g><g transform="translate(-110,-62) scale(1,1)"><g><path fill="none" stroke="none"></path><text fill="#000000" stroke="none" font-family="Arial" font-size="13px" font-style="normal" font-weight="normal" text-decoration="none" x="1061" y="573.5">+determineAction(): void</text></g></g><g transform="translate(-110,-62) scale(1,1)"><g><path fill="none" stroke="none"></path><text fill="#000000" stroke="none" font-family="Arial" font-size="13px" font-style="normal" font-weight="normal" text-decoration="none" x="1061" y="588.5">+initAction(int): void</text></g></g><g transform="translate(-110,-62) scale(1,1)"><g><path fill="none" stroke="none"></path><text fill="#000000" stroke="none" font-family="Arial" font-size="13px" font-style="normal" font-weight="normal" text-decoration="none" x="1061" y="603.5">+initRefund(): void</text></g></g><g transform="translate(-110,-62) scale(1,1)"><g><path fill="none" stroke="none"></path><text fill="#000000" stroke="none" font-family="Arial" font-size="13px" font-style="normal" font-weight="normal" text-decoration="none" x="1061" y="618.5">+disableSlot(int): void</text></g></g><g transform="translate(-110,-62) scale(1,1)"><rect fill="#C0C0C0" stroke="none" x="831" y="1183" width="258" height="220" opacity="0.2"></rect></g><g transform="translate(-110,-62) scale(1,1)"><rect fill="#ffffff" stroke="none" x="824" y="1176" width="258" height="220"></rect></g><g transform="translate(-110,-62) scale(1,1)"><path fill="none" stroke="#000000" d="M 824 1176 L 1082 1176 L 1082 1396 L 824 1396 L 824 1176 Z Z" stroke-miterlimit="10"></path></g><g transform="translate(-110,-62) scale(1,1)"><path fill="none" stroke="#000000" d="M 824 1201 L 1082 1201" stroke-miterlimit="10"></path></g><g transform="translate(-110,-62) scale(1,1)"><path fill="none" stroke="#000000" d="M 824 1239 L 1082 1239" stroke-miterlimit="10"></path></g><g transform="translate(-110,-62) scale(1,1)"><g><path fill="none" stroke="none"></path><text fill="#000000" stroke="none" font-family="Arial" font-size="13px" font-style="italic" font-weight="bold" text-decoration="none" x="931" y="1195.5">System</text></g></g><g transform="translate(-110,-62) scale(1,1)"><g><path fill="none" stroke="none"></path><text fill="#000000" stroke="none" font-family="Arial" font-size="13px" font-style="normal" font-weight="normal" text-decoration="none" x="829" y="1218.5">+database: DataBaseHelper</text></g></g><g transform="translate(-110,-62) scale(1,1)"><g><path fill="none" stroke="none"></path><text fill="#000000" stroke="none" font-family="Arial" font-size="13px" font-style="normal" font-weight="normal" text-decoration="none" x="829" y="1233.5">+server: Server</text></g></g><g transform="translate(-110,-62) scale(1,1)"><g><path fill="none" stroke="none"></path><text fill="#000000" stroke="none" font-family="Arial" font-size="13px" font-style="normal" font-weight="normal" text-decoration="none" x="829" y="1256.5">+setUpDatabase(): void</text></g></g><g transform="translate(-110,-62) scale(1,1)"><g><path fill="none" stroke="none"></path><text fill="#000000" stroke="none" font-family="Arial" font-size="13px" font-style="normal" font-weight="normal" text-decoration="none" x="829" y="1271.5">+runServer(): void</text></g></g><g transform="translate(-110,-62) scale(1,1)"><g><path fill="none" stroke="none"></path><text fill="#000000" stroke="none" font-family="Arial" font-size="13px" font-style="normal" font-weight="normal" text-decoration="none" x="829" y="1286.5">+reset(): void</text></g></g><g transform="translate(-110,-62) scale(1,1)"><g><path fill="none" stroke="none"></path><text fill="#000000" stroke="none" font-family="Arial" font-size="13px" font-style="italic" font-weight="normal" text-decoration="none" x="829" y="1301.5">+reorder(): void</text></g></g><g transform="translate(-110,-62) scale(1,1)"><g><path fill="none" stroke="none"></path><text fill="#000000" stroke="none" font-family="Arial" font-size="13px" font-style="italic" font-weight="normal" text-decoration="none" x="829" y="1316.5">+errorMessage(): void</text></g></g><g transform="translate(-110,-62) scale(1,1)"><g><path fill="none" stroke="none"></path><text fill="#000000" stroke="none" font-family="Arial" font-size="13px" font-style="italic" font-weight="normal" text-decoration="none" x="829" y="1331.5">+validateLogin(String String): boolean</text></g></g><g transform="translate(-110,-62) scale(1,1)"><g><path fill="none" stroke="none"></path><text fill="#000000" stroke="none" font-family="Arial" font-size="13px" font-style="italic" font-weight="normal" text-decoration="none" x="829" y="1346.5">+setLoginDetails(String String): void</text></g></g><g transform="translate(-110,-62) scale(1,1)"><g><path fill="none" stroke="none"></path><text fill="#000000" stroke="none" font-family="Arial" font-size="13px" font-style="italic" font-weight="normal" text-decoration="none" x="829" y="1361.5">+listenConnect(): void</text></g></g><g transform="translate(-110,-62) scale(1,1)"><g><path fill="none" stroke="none"></path><text fill="#000000" stroke="none" font-family="Arial" font-size="13px" font-style="italic" font-weight="normal" text-decoration="none" x="829" y="1376.5">+getConfig(): double</text></g></g><g transform="translate(-110,-62) scale(1,1)"><g><path fill="none" stroke="none"></path><text fill="#000000" stroke="none" font-family="Arial" font-size="13px" font-style="italic" font-weight="normal" text-decoration="none" x="829" y="1391.5">+setConfig(String): void</text></g></g><g transform="translate(-110,-62) scale(1,1)"><rect fill="#C0C0C0" stroke="none" x="1135" y="759" width="159" height="113" opacity="0.2"></rect></g><g transform="translate(-110,-62) scale(1,1)"><rect fill="#ffffff" stroke="none" x="1128" y="752" width="159" height="113"></rect></g><g transform="translate(-110,-62) scale(1,1)"><path fill="none" stroke="#000000" d="M 1128 752 L 1287 752 L 1287 865 L 1128 865 L 1128 752 Z Z" stroke-miterlimit="10"></path></g><g transform="translate(-110,-62) scale(1,1)"><path fill="none" stroke="#000000" d="M 1128 790 L 1287 790" stroke-miterlimit="10"></path></g><g transform="translate(-110,-62) scale(1,1)"><path fill="none" stroke="#000000" d="M 1128 813 L 1287 813" stroke-miterlimit="10"></path></g><g transform="translate(-110,-62) scale(1,1)"><g><path fill="none" stroke="none"></path><text fill="#000000" stroke="none" font-family="Arial" font-size="13px" font-style="normal" font-weight="normal" text-decoration="none" x="1181" y="769.5">«control»</text></g></g><g transform="translate(-110,-62) scale(1,1)"><g><path fill="none" stroke="none"></path><text fill="#000000" stroke="none" font-family="Arial" font-size="13px" font-style="normal" font-weight="bold" text-decoration="none" x="1164.5" y="784.5">SystemControl</text></g></g><g transform="translate(-110,-62) scale(1,1)"><g><path fill="none" stroke="none"></path><text fill="#000000" stroke="none" font-family="Arial" font-size="13px" font-style="normal" font-weight="normal" text-decoration="none" x="1133" y="807.5">+sensor: Sensor</text></g></g><g transform="translate(-110,-62) scale(1,1)"><g><path fill="none" stroke="none"></path><text fill="#000000" stroke="none" font-family="Arial" font-size="13px" font-style="normal" font-weight="normal" text-decoration="none" x="1133" y="830.5">+run(Sensor): void</text></g></g><g transform="translate(-110,-62) scale(1,1)"><g><path fill="none" stroke="none"></path><text fill="#000000" stroke="none" font-family="Arial" font-size="13px" font-style="normal" font-weight="normal" text-decoration="none" x="1133" y="845.5">+verify(): void</text></g></g><g transform="translate(-110,-62) scale(1,1)"><g><path fill="none" stroke="none"></path><text fill="#000000" stroke="none" font-family="Arial" font-size="13px" font-style="normal" font-weight="normal" text-decoration="none" x="1133" y="860.5">+provideAction(): int</text></g></g><g transform="translate(-110,-62) scale(1,1)"><path fill="none" stroke="#000000" d="M 704 1280 L 824 1280" stroke-miterlimit="10"></path></g><g transform="translate(-110,-62) scale(1,1)"><path fill="#000000" stroke="none" d="M 813.8373251423759 1284.2095177560159 L 824 1280 L 813.8373251423758 1275.7904822439841 L 802 1280"></path></g><g transform="translate(-110,-62) scale(1,1)"><path fill="none" stroke="#000000" d="M 813.8373251423759 1284.2095177560159 L 824 1280 L 813.8373251423758 1275.7904822439841 L 802 1280 L 813.8373251423759 1284.2095177560159" stroke-miterlimit="10"></path></g><g transform="translate(-110,-62) scale(1,1)"><g><path fill="none" stroke="none"></path><text fill="#000000" stroke="none" font-family="Arial" font-size="13px" font-style="normal" font-weight="normal" text-decoration="none" x="722" y="1299">1</text></g></g><g transform="translate(-110,-62) scale(1,1)"><g><path fill="none" stroke="none"></path><text fill="#000000" stroke="none" font-family="Arial" font-size="13px" font-style="normal" font-weight="normal" text-decoration="none" x="799" y="1299">1</text></g></g><g transform="translate(-110,-62) scale(1,1)"><path fill="none" stroke="#000000" d="M 728 264 L 728 172" stroke-miterlimit="10" stroke-dasharray="3"></path></g><g transform="translate(-110,-62) scale(1,1)"><path fill="#FFFFFF" stroke="none" d="M 736.419035512032 192.3253497152483 L 728 172 L 719.580964487968 192.3253497152483"></path></g><g transform="translate(-110,-62) scale(1,1)"><path fill="none" stroke="#000000" d="M 736.419035512032 192.3253497152483 L 728 172 L 719.580964487968 192.3253497152483 L 736.419035512032 192.3253497152483" stroke-miterlimit="10"></path></g><g transform="translate(-110,-62) scale(1,1)"><path fill="none" stroke="#000000" d="M 1144 1320 L 1082 1320" stroke-miterlimit="10"></path></g><g transform="translate(-110,-62) scale(1,1)"><path fill="#000000" stroke="none" d="M 1092.162674857624 1315.7904822439841 L 1082 1320 L 1092.162674857624 1324.2095177560159 L 1104 1320"></path></g><g transform="translate(-110,-62) scale(1,1)"><path fill="none" stroke="#000000" d="M 1092.162674857624 1315.7904822439841 L 1082 1320 L 1092.162674857624 1324.2095177560159 L 1104 1320 L 1092.162674857624 1315.7904822439841" stroke-miterlimit="10"></path></g><g transform="translate(-110,-62) scale(1,1)"><g><path fill="none" stroke="none"></path><text fill="#000000" stroke="none" font-family="Arial" font-size="13px" font-style="normal" font-weight="normal" text-decoration="none" x="1119" y="1314">1</text></g></g><g transform="translate(-110,-62) scale(1,1)"><g><path fill="none" stroke="none"></path><text fill="#000000" stroke="none" font-family="Arial" font-size="13px" font-style="normal" font-weight="normal" text-decoration="none" x="1100" y="1314">1</text></g></g><g transform="translate(-110,-62) scale(1,1)"><path fill="none" stroke="#000000" d="M 320 878 L 488 878" stroke-miterlimit="10"></path></g><g transform="translate(-110,-62) scale(1,1)"><path fill="#000000" stroke="none" d="M 477.83732514237585 882.209517756016 L 488 878 L 477.83732514237585 873.790482243984 L 466 878"></path></g><g transform="translate(-110,-62) scale(1,1)"><path fill="none" stroke="#000000" d="M 477.83732514237585 882.209517756016 L 488 878 L 477.83732514237585 873.790482243984 L 466 878 L 477.83732514237585 882.209517756016" stroke-miterlimit="10"></path></g><g transform="translate(-110,-62) scale(1,1)"><g><path fill="none" stroke="none"></path><text fill="#000000" stroke="none" font-family="Arial" font-size="13px" font-style="normal" font-weight="normal" text-decoration="none" x="338" y="897">1</text></g></g><g transform="translate(-110,-62) scale(1,1)"><g><path fill="none" stroke="none"></path><text fill="#000000" stroke="none" font-family="Arial" font-size="13px" font-style="normal" font-weight="normal" text-decoration="none" x="463" y="897">1</text></g></g><g transform="translate(-110,-62) scale(1,1)"><path fill="none" stroke="#000000" d="M 512 704 L 512 552 L 584 552" stroke-miterlimit="10"></path></g><g transform="translate(-110,-62) scale(1,1)"><path fill="#000000" stroke="none" d="M 573.8373251423759 556.209517756016 L 584 552 L 573.8373251423758 547.790482243984 L 562 552"></path></g><g transform="translate(-110,-62) scale(1,1)"><path fill="none" stroke="#000000" d="M 573.8373251423759 556.209517756016 L 584 552 L 573.8373251423758 547.790482243984 L 562 552 L 573.8373251423759 556.209517756016" stroke-miterlimit="10"></path></g><g transform="translate(-110,-62) scale(1,1)"><g><path fill="none" stroke="none"></path><text fill="#000000" stroke="none" font-family="Arial" font-size="13px" font-style="normal" font-weight="normal" text-decoration="none" x="514" y="689">1..*</text></g></g><g transform="translate(-110,-62) scale(1,1)"><g><path fill="none" stroke="none"></path><text fill="#000000" stroke="none" font-family="Arial" font-size="13px" font-style="normal" font-weight="normal" text-decoration="none" x="559" y="571">1</text></g></g><g transform="translate(-110,-62) scale(1,1)"><path fill="none" stroke="#000000" d="M 1275 568 L 1376 568" stroke-miterlimit="10" stroke-dasharray="3"></path></g><g transform="translate(-110,-62) scale(1,1)"><path fill="#FFFFFF" stroke="none" d="M 1355.6746502847518 576.419035512032 L 1376 568 L 1355.6746502847516 559.580964487968"></path></g><g transform="translate(-110,-62) scale(1,1)"><path fill="none" stroke="#000000" d="M 1355.6746502847518 576.419035512032 L 1376 568 L 1355.6746502847516 559.580964487968 L 1355.6746502847518 576.419035512032" stroke-miterlimit="10"></path></g><g transform="translate(-110,-62) scale(1,1)"><path fill="none" stroke="#000000" d="M 1208 752 L 1208 623" stroke-miterlimit="10"></path></g><g transform="translate(-110,-62) scale(1,1)"><path fill="#000000" stroke="none" d="M 1212.2095177560159 633.1626748576241 L 1208 623 L 1203.7904822439841 633.1626748576241 L 1208 645"></path></g><g transform="translate(-110,-62) scale(1,1)"><path fill="none" stroke="#000000" d="M 1212.2095177560159 633.1626748576241 L 1208 623 L 1203.7904822439841 633.1626748576241 L 1208 645 L 1212.2095177560159 633.1626748576241" stroke-miterlimit="10"></path></g><g transform="translate(-110,-62) scale(1,1)"><g><path fill="none" stroke="none"></path><text fill="#000000" stroke="none" font-family="Arial" font-size="13px" font-style="normal" font-weight="normal" text-decoration="none" x="1217" y="737">1</text></g></g><g transform="translate(-110,-62) scale(1,1)"><g><path fill="none" stroke="none"></path><text fill="#000000" stroke="none" font-family="Arial" font-size="13px" font-style="normal" font-weight="normal" text-decoration="none" x="1217" y="651">1</text></g></g><g transform="translate(-110,-62) scale(1,1)"><path fill="none" stroke="#000000" d="M 1432 808 L 1287 808" stroke-miterlimit="10"></path></g><g transform="translate(-110,-62) scale(1,1)"><path fill="#FFFFFF" stroke="none" d="M 1297.162674857624 803.790482243984 L 1287 808 L 1297.162674857624 812.209517756016 L 1309 808"></path></g><g transform="translate(-110,-62) scale(1,1)"><path fill="none" stroke="#000000" d="M 1297.162674857624 803.790482243984 L 1287 808 L 1297.162674857624 812.209517756016 L 1309 808 L 1297.162674857624 803.790482243984" stroke-miterlimit="10"></path></g><g transform="translate(-110,-62) scale(1,1)"><g><path fill="none" stroke="none"></path><text fill="#000000" stroke="none" font-family="Arial" font-size="13px" font-style="normal" font-weight="normal" text-decoration="none" x="1407" y="802">1</text></g></g><g transform="translate(-110,-62) scale(1,1)"><g><path fill="none" stroke="none"></path><text fill="#000000" stroke="none" font-family="Arial" font-size="13px" font-style="normal" font-weight="normal" text-decoration="none" x="1305" y="802">1</text></g></g><g transform="translate(-110,-62) scale(1,1)"><path fill="none" stroke="#000000" d="M 648 364 L 648 472" stroke-miterlimit="10" stroke-dasharray="3"></path></g><g transform="translate(-110,-62) scale(1,1)"><path fill="none" stroke="#000000" d="M 643.790482243984 461.83732514237585 L 648 472 L 652.209517756016 461.83732514237585" stroke-miterlimit="10"></path></g><g transform="translate(-110,-62) scale(1,1)"><path fill="none" stroke="#000000" d="M 744 472 L 744 364" stroke-miterlimit="10" stroke-dasharray="3"></path></g><g transform="translate(-110,-62) scale(1,1)"><path fill="none" stroke="#000000" d="M 748.209517756016 374.16267485762415 L 744 364 L 739.790482243984 374.16267485762415" stroke-miterlimit="10"></path></g><g transform="translate(-110,-62) scale(1,1)"><path fill="none" stroke="#000000" d="M 800 536 L 864 536 L 864 1176" stroke-miterlimit="10"></path></g><g transform="translate(-110,-62) scale(1,1)"><path fill="#FFFFFF" stroke="none" d="M 855.580964487968 1155.6746502847518 L 864 1176 L 872.419035512032 1155.6746502847518"></path></g><g transform="translate(-110,-62) scale(1,1)"><path fill="none" stroke="#000000" d="M 855.580964487968 1155.6746502847518 L 864 1176 L 872.419035512032 1155.6746502847518 L 855.580964487968 1155.6746502847518" stroke-miterlimit="10"></path></g><g transform="translate(-110,-62) scale(1,1)"><path fill="none" stroke="#000000" d="M 1072 623 L 1072 896 L 864 896 L 864 1176" stroke-miterlimit="10"></path></g><g transform="translate(-110,-62) scale(1,1)"><path fill="#FFFFFF" stroke="none" d="M 855.580964487968 1155.6746502847518 L 864 1176 L 872.419035512032 1155.6746502847518"></path></g><g transform="translate(-110,-62) scale(1,1)"><path fill="none" stroke="#000000" d="M 855.580964487968 1155.6746502847518 L 864 1176 L 872.419035512032 1155.6746502847518 L 855.580964487968 1155.6746502847518" stroke-miterlimit="10"></path></g></g></svg>